<?xml version="1.0" standalone="no"?>
<!DOCTYPE svg PUBLIC "-//W3C//DTD SVG 20010904//EN"
 "http://www.w3.org/TR/2001/REC-SVG-20010904/DTD/svg10.dtd">
<svg version="1.0" xmlns="http://www.w3.org/2000/svg"
 width="500.000000pt" height="500.000000pt" viewBox="0 0 500.000000 500.000000"
 preserveAspectRatio="xMidYMid meet">
<metadata>
Created by potrace 1.14, written by Peter Selinger 2001-2017
</metadata>
<g transform="translate(0.000000,500.000000) scale(0.100000,-0.100000)"
fill="#000000" stroke="none">
<path d="M2477 4983 c-1 0 -56 -4 -122 -7 -66 -3 -129 -8 -141 -10 -12 -2 -45
-7 -75 -11 -69 -8 -173 -30 -269 -55 -41 -11 -85 -22 -98 -25 -98 -23 -370
-141 -516 -224 -59 -34 -198 -126 -225 -150 -13 -12 -27 -21 -30 -21 -3 0 -18
-10 -32 -23 -15 -12 -48 -40 -75 -62 -184 -150 -424 -436 -541 -645 -106 -187
-215 -442 -237 -551 -3 -13 -12 -47 -20 -74 -8 -28 -18 -68 -21 -90 -4 -22 -8
-48 -11 -57 -7 -23 -13 -55 -19 -103 -3 -22 -8 -51 -10 -65 -20 -106 -20 -493
0 -609 3 -17 8 -46 11 -63 3 -18 7 -49 9 -68 5 -46 48 -229 75 -317 84 -270
265 -608 429 -803 12 -14 38 -45 59 -70 42 -51 208 -218 268 -269 234 -202
564 -386 847 -473 40 -12 77 -23 82 -25 38 -12 275 -62 322 -68 32 -5 72 -10
88 -12 175 -22 492 -17 635 12 13 2 42 7 65 10 114 17 378 88 460 125 22 10
74 33 115 51 178 76 407 211 530 314 25 20 67 56 95 79 77 63 226 216 295 302
245 305 432 690 505 1044 2 8 6 26 9 40 3 14 8 45 11 70 3 25 7 54 9 66 12 62
28 275 28 379 -1 51 -11 210 -16 255 -15 114 -22 155 -30 190 -3 14 -8 36 -10
50 -13 79 -79 303 -111 375 -7 17 -23 55 -35 85 -62 160 -249 469 -355 587 -5
6 -32 37 -60 69 -179 210 -429 410 -680 545 -70 38 -343 161 -370 167 -5 2
-39 11 -75 22 -133 39 -248 66 -320 76 -25 3 -56 8 -70 10 -90 16 -364 36
-373 27z"/>
</g>
</svg>
